<svg xmlns="http://www.w3.org/2000/svg" viewBox="0 0 200 200" aria-labelledby="t">
  <title id="t">Hundelykke – hjerte med pote (4 tæer, 3D)</title>

  <defs>
    <!-- Hjerte: gradient fra lys (oppe/venstre) til mørk (nede/højre) -->
    <linearGradient id="heartGrad" x1="0" y1="0" x2="1" y2="1">
      <stop offset="0%"  stop-color="#3A7564"/>
      <stop offset="100%" stop-color="#25483F"/>
    </linearGradient>

    <!-- Ydre skygge (falder ned/højre) -->
    <filter id="dropShadow" x="-20%" y="-20%" width="160%" height="160%">
      <feDropShadow dx="6" dy="7" stdDeviation="5" flood-color="#000" flood-opacity=".28"/>
    </filter>

    <!-- Tynd “rim light” langs øvre venstre hjertekant -->
    <linearGradient id="rimLight" x1="0.15" y1="0.1" x2="0.7" y2="0.55">
      <stop offset="0%"  stop-color="#fff" stop-opacity=".6"/>
      <stop offset="70%" stop-color="#fff" stop-opacity="0"/>
    </linearGradient>

    <!-- Let relief til pote (meget diskret) -->
    <filter id="padRelief" x="-40%" y="-40%" width="180%" height="180%">
      <feOffset dx="0.6" dy="0.8"/>
      <feGaussianBlur stdDeviation="0.8"/>
      <feColorMatrix type="matrix"
        values="0 0 0 0 0
                0 0 0 0 0
                0 0 0 0 0
                0 0 0 .20 0"/>
      <feBlend in="SourceGraphic" mode="normal"/>
    </filter>

    <!-- Let lys på pote-overflader -->
    <radialGradient id="pawGlow" cx="35%" cy="30%" r="85%">
      <stop offset="0%" stop-color="#fff" stop-opacity="1"/>
      <stop offset="100%" stop-color="#F4F4F4" stop-opacity="1"/>
    </radialGradient>
  </defs>

  <!-- Hjerte med gradient + drop shadow -->
  <g filter="url(#dropShadow)">
    <path d="M100 182
             C100 182, 20 122, 20 72
             C20 42, 44 22, 74 26
             C89 28, 99 40, 100 56
             C101 40, 111 28, 126 26
             C156 22, 180 42, 180 72
             C180 122, 100 182, 100 182 Z"
          fill="url(#heartGrad)"/>
  </g>

  <!-- Rim-highlight (øverst/venstre) -->
  <path d="M30 90
           C28 58, 52 36, 78 32
           C92 30, 102 38, 110 52"
        fill="none" stroke="url(#rimLight)"
        stroke-width="6" stroke-linecap="round" opacity=".6"/>

  <!-- Pote med 4 tæer + formet trædepude -->
  <g filter="url(#padRelief)">
    <!-- Tæer -->
    <circle cx="70"  cy="82" r="11.5" fill="url(#pawGlow)"/>
    <circle cx="88"  cy="66" r="11.5" fill="url(#pawGlow)"/>
    <circle cx="112" cy="66" r="11.5" fill="url(#pawGlow)"/>
    <circle cx="130" cy="82" r="11.5" fill="url(#pawGlow)"/>
    <!-- Trædepude -->
    <path d="M100 120
             c -17 0 -28 -11 -28 -22
             c 0 -8 6 -15 12 -19
             c 7 -5 12 -6 16 -6
             c 4 0 9 1 16 6
             c 6 4 12 11 12 19
             c 0 11 -11 22 -28 22 z"
          fill="url(#pawGlow)"/>
  </g>
</svg>

