<svg xmlns="http://www.w3.org/2000/svg" viewBox="0 0 200 200" aria-labelledby="t">
  <title id="t">Hundelykke – hjerte med pote (3D, ovále tæer)</title>

  <defs>
    <!-- Hjerte: lys oppe/venstre -> mørkere nede/højre -->
    <linearGradient id="heartGrad" x1="0" y1="0" x2="1" y2="1">
      <stop offset="0%"  stop-color="#3A7564"/>
      <stop offset="100%" stop-color="#24543F"/>
    </linearGradient>

    <!-- Blød skygge under hele hjertet -->
    <filter id="dropShadow" x="-25%" y="-25%" width="150%" height="170%">
      <feDropShadow dx="6" dy="7" stdDeviation="5" flood-color="#000" flood-opacity=".28"/>
    </filter>

    <!-- Diskret kantlys på hjertets top/venstre -->
    <linearGradient id="rimLight" x1="0.12" y1="0.08" x2="0.65" y2="0.55">
      <stop offset="0%"  stop-color="#FFFFFF" stop-opacity=".6"/>
      <stop offset="70%" stop-color="#FFFFFF" stop-opacity="0"/>
    </linearGradient>

    <!-- Svag relief til pote (giver 3D) -->
    <filter id="padRelief" x="-40%" y="-40%" width="180%" height="180%">
      <feOffset dx="0.5" dy="0.7"/>
      <feGaussianBlur stdDeviation="0.7"/>
      <feColorMatrix type="matrix"
        values="0 0 0 0 0
                0 0 0 0 0
                0 0 0 0 0
                0 0 0 .22 0"/>
      <feBlend in="SourceGraphic" mode="normal"/>
    </filter>

    <!-- Pote highlight (hvid -> lys grå) for subtil volumen -->
    <radialGradient id="pawGlow" cx="35%" cy="30%" r="85%">
      <stop offset="0%" stop-color="#FFFFFF"/>
      <stop offset="100%" stop-color="#F4F4F4"/>
    </radialGradient>
  </defs>

  <!-- HJERTE med skygge -->
  <g filter="url(#dropShadow)">
    <path d="M100 182
             C100 182, 20 122, 20 72
             C20 42, 44 22, 74 26
             C89 28, 99 40, 100 56
             C101 40, 111 28, 126 26
             C156 22, 180 42, 180 72
             C180 122, 100 182, 100 182 Z"
          fill="url(#heartGrad)"/>
  </g>

  <!-- Kant-lys på hjertet (øverst/venstre) -->
  <path d="M30 90
           C28 58, 52 36, 78 32
           C92 30, 102 38, 110 52"
        fill="none" stroke="url(#rimLight)"
        stroke-width="6" stroke-linecap="round" opacity=".55"/>

  <!-- POTE (ovale tæer som reference, centreret og med ens afstand) -->
  <g filter="url(#padRelief)">
    <!-- Tæer (OVALE) -->
    <ellipse cx="76"  cy="92" rx="8"  ry="12" fill="url(#pawGlow)"/>  <!-- venstre yder -->
    <ellipse cx="90"  cy="79" rx="7.5" ry="13" fill="url(#pawGlow)"/>  <!-- venstre midt -->
    <ellipse cx="110" cy="79" rx="7.5" ry="13" fill="url(#pawGlow)"/>  <!-- højre midt -->
    <ellipse cx="124" cy="92" rx="8"  ry="12" fill="url(#pawGlow)"/>  <!-- højre yder -->
    <!-- Fodpude (oval) -->
    <ellipse cx="100" cy="120" rx="24" ry="18" fill="url(#pawGlow)"/>
  </g>
</svg>


