<!-- Hundelykke – 3D hjerte med pote (lys oppe-venstre, skygge nede-højre) -->
<svg xmlns="http://www.w3.org/2000/svg" viewBox="0 0 256 256" aria-labelledby="title">
  <title>Hundelykke logo</title>

  <defs>
    <!-- Farver -->
    <linearGradient id="heartGrad" x1="0" y1="0" x2="1" y2="1">
      <!-- lysere oppe-venstre -> mørkere nede-højre -->
      <stop offset="0%"  stop-color="#2F5D50"/>
      <stop offset="100%" stop-color="#21463C"/>
    </linearGradient>

    <!-- Ydre skygge (falder ned mod højre) -->
    <filter id="dropShadow" x="-20%" y="-20%" width="160%" height="160%">
      <feDropShadow dx="8" dy="10" stdDeviation="6" flood-color="#000000" flood-opacity="0.25"/>
    </filter>

    <!-- Blød highlight langs øvre venstre kurve -->
    <linearGradient id="rimLight" x1="0.2" y1="0.1" x2="0.8" y2="0.6">
      <stop offset="0%"  stop-color="white" stop-opacity="0.65"/>
      <stop offset="70%" stop-color="white" stop-opacity="0"/>
    </linearGradient>

    <!-- Diskret “indvendig” skygge til pote (for let relief) -->
    <filter id="padInset" x="-40%" y="-40%" width="180%" height="180%">
      <feOffset dx="1" dy="1"/>
      <feGaussianBlur stdDeviation="1.5"/>
      <feComposite in2="SourceAlpha" operator="out"/>
      <feColorMatrix type="matrix"
        values="0 0 0 0 0
                0 0 0 0 0
                0 0 0 0 0
                0 0 0 .22 0"/>
      <feBlend in="SourceGraphic" mode="normal"/>
    </filter>
  </defs>

  <!-- HVID BAGGRUND (VALGFRIT). Fjern kommentaren herunder, hvis du vil tvinge hvid baggrund:
  <rect x="0" y="0" width="256" height="256" fill="#FFFFFF"/>
  -->

  <!-- Hjerte (med gradient + ydre skygge) -->
  <g filter="url(#dropShadow)">
    <path id="heartPath"
      d="M128 232
         C128 232, 36 166, 36 100
         C36 66, 60 42, 92 42
         C112 42, 125 55, 128 70
         C131 55, 144 42, 164 42
         C196 42, 220 66, 220 100
         C220 166, 128 232, 128 232 Z"
      fill="url(#heartGrad)"/>
  </g>

  <!-- Rim highlight – tynd glød langs øvre venstre hjertekurve -->
  <path
    d="M56 104
       C54 74, 72 56, 94 52
       C110 50, 120 58, 128 70"
    fill="none" stroke="url(#rimLight)" stroke-width="8" stroke-linecap="round" opacity=".55"/>

  <!-- Pote (hvid) med meget diskret relief -->
  <g filter="url(#padInset)">
    <!-- Tæer -->
    <circle cx="100" cy="112" r="14" fill="#FFFFFF"/>
    <circle cx="156" cy="112" r="14" fill="#FFFFFF"/>
    <circle cx="128" cy="88"  r="14" fill="#FFFFFF"/>
    <!-- Trædepude -->
    <ellipse cx="128" cy="146" rx="28" ry="22" fill="#FFFFFF"/>
  </g>
</svg>
